#!OML:ASF E:\pregnant2\Project 1\Capture day 1\Session 1\pregnant2.ASF
:FULLY-SPECIFIED
:DEGREES
1873
root 8.6808 17.1422 25.6069 28.7909 -1.89318 -0.991632
lowerback -18.0238 0.739029 2.96824
upperback -15.9986 0.638226 1.19161
thorax -7.33097 0.10044 -0.303847
lowerneck -13.9169 0.244222 -0.529866
upperneck 33.0723 0.792745 -0.86268
head 13.4676 0.158538 -0.127101
rclavicle -2.5842e-015 -2.38542e-015
rhumerus -52.7186 9.07187 -75.6401
rradius 30.2357
rwrist 13.431
rhand -12.0896 -12.7494
rfingers 7.12502
rthumb 13.9706 -42.26
lclavicle -2.5842e-015 -2.38542e-015
lhumerus -49.5577 1.79207 77.0968
lradius 25.2809
lwrist -11.8263
lhand -16.1473 27.0337
lfingers 7.12502
lthumb 10.0581 56.7733
rfemur -39.5146 14.7246 16.3491
rtibia 28.4987
rfoot -15.3803 -20.5823
rtoes 1.74517
lfemur -39.1538 -14.0177 -12.1592
ltibia 29.1709
lfoot -10.205 23.1788
ltoes -17.2057
1874
root 8.68805 17.1407 25.5803 28.912 -1.86648 -0.985418
lowerback -17.963 0.758578 3.00109
upperback -15.9495 0.661878 1.18103
thorax -7.30382 0.109587 -0.331615
lowerneck -13.928 0.360465 -0.361775
upperneck 33.4825 0.967759 -0.990471
head 13.6515 0.237264 -0.181036
rclavicle -3.97569e-015 1.43125e-014
rhumerus -52.7114 9.17483 -75.5872
rradius 30.1835
rwrist 13.4075
rhand -12.0558 -12.8227
rfingers 7.12502
rthumb 14.0032 -42.331
lclavicle -3.97569e-015 1.43125e-014
lhumerus -49.4484 1.79294 77.0178
lradius 25.0935
lwrist -11.989
lhand -16.1769 27.0605
lfingers 7.12502
lthumb 10.0295 56.8015
rfemur -39.7829 14.7002 16.256
rtibia 28.5582
rfoot -15.3418 -20.5909
rtoes 1.74696
lfemur -39.4393 -14.0053 -12.1156
ltibia 29.2327
lfoot -10.149 23.1235
ltoes -17.1467
1875
root 8.69551 17.1391 25.5529 29.0399 -1.84031 -0.978177
lowerback -17.899 0.778188 3.03485
upperback -15.8991 0.68559 1.16913
thorax -7.27693 0.118616 -0.361345
lowerneck -13.9168 0.478587 -0.204934
upperneck 33.8711 1.14371 -1.10115
head 13.8235 0.317479 -0.226271
rclavicle -2.18663e-015 1.19271e-014
rhumerus -52.7073 9.28313 -75.5493
rradius 30.1368
rwrist 13.4054
rhand -12.0112 -12.8768
rfingers 7.12502
rthumb 14.0462 -42.3821
lclavicle -2.18663e-015 1.19271e-014
lhumerus -49.339 1.79376 76.9473
lradius 24.908
lwrist -12.1538
lhand -16.1815 27.0909
lfingers 7.12502
lthumb 10.025 56.8321
rfemur -40.0614 14.6668 16.1619
rtibia 28.6172
rfoot -15.2982 -20.5924
rtoes 1.74311
lfemur -39.735 -13.9887 -12.0725
ltibia 29.2923
lfoot -10.09 23.0639
ltoes -17.0817
1876
root 8.70315 17.1375 25.5249 29.1726 -1.81631 -0.969932
lowerback -17.8304 0.798931 3.06971
upperback -15.8477 0.71078 1.15479
thorax -7.25122 0.128153 -0.394192
lowerneck -13.8742 0.599252 -0.0633887
upperneck 34.2327 1.32052 -1.18898
head 13.9785 0.399512 -0.259674
rclavicle -9.24349e-015 2.74323e-014
rhumerus -52.7067 9.39081 -75.5235
rradius 30.0935
rwrist 13.4299
rhand -11.953 -12.9203
rfingers 7.12502
rthumb 14.1022 -42.4218
lclavicle -9.24349e-015 2.74323e-014
lhumerus -49.2328 1.7909 76.8866
lradius 24.7262
lwrist -12.3161
lhand -16.1675 27.1236
lfingers 7.12502
lthumb 10.0386 56.8642
rfemur -40.3481 14.6256 16.0672
rtibia 28.6763
rfoot -15.252 -20.5863
rtoes 1.74365
lfemur -40.0362 -13.969 -12.0308
ltibia 29.3482
lfoot -10.0243 23.0038
ltoes -17.0186
1877
root 8.71096 17.1358 25.4964 29.3195 -1.79575 -0.960305
lowerback -17.769 0.821577 3.1048
upperback -15.7962 0.73806 1.13777
thorax -7.22158 0.13863 -0.42977
lowerneck -13.8243 0.716856 0.0767346
upperneck 34.5817 1.49404 -1.2768
head 14.1284 0.479997 -0.293462
rclavicle -4.67144e-015 2.38542e-015
rhumerus -52.7089 9.49955 -75.5117
rradius 30.0557
rwrist 13.4724
rhand -11.8875 -12.9582
rfingers 7.12502
rthumb 14.1654 -42.4553
lclavicle -4.67144e-015 2.38542e-015
lhumerus -49.1248 1.79108 76.8306
lradius 24.543
lwrist -12.4845
lhand -16.1328 27.1523
lfingers 7.12502
lthumb 10.072 56.8912
rfemur -40.654 14.5747 15.9692
rtibia 28.7363
rfoot -15.2034 -20.571
rtoes 1.75298
lfemur -40.3524 -13.9432 -11.9895
ltibia 29.3988
lfoot -9.95189 22.9414
ltoes -16.9601
1878
root 8.71883 17.134 25.4674 29.4837 -1.77941 -0.949279
lowerback -17.7212 0.844703 3.13705
upperback -15.7419 0.765563 1.11981
thorax -7.1815 0.149595 -0.464649
lowerneck -13.7744 0.831006 0.209898
upperneck 34.9187 1.66303 -1.35837
head 14.2747 0.558484 -0.32431
rclavicle 2.48481e-015 8.34896e-015
rhumerus -52.7058 9.61334 -75.5161
rradius 30.0181
rwrist 13.5186
rhand -11.8279 -12.9789
rfingers 7.12502
rthumb 14.2229 -42.4719
lclavicle 2.48481e-015 8.34896e-015
lhumerus -49.0125 1.78938 76.7856
lradius 24.3638
lwrist -12.6531
lhand -16.0853 27.1819
lfingers 7.12502
lthumb 10.1178 56.9186
rfemur -40.9833 14.52 15.8645
rtibia 28.7977
rfoot -15.1523 -20.553
rtoes 1.76907
lfemur -40.686 -13.9129 -11.9469
ltibia 29.4436
lfoot -9.87082 22.8793
ltoes -16.9128
1879
root 8.72684 17.1321 25.4379 29.6678 -1.76902 -0.93661
lowerback -17.6859 0.869395 3.16648
upperback -15.6872 0.794791 1.09979
thorax -7.13449 0.161682 -0.499843
lowerneck -13.7277 0.941452 0.341739
upperneck 35.2477 1.82798 -1.44075
head 14.4201 0.634913 -0.35599
rclavicle -2.48481e-015 -3.57812e-015
rhumerus -52.7 9.73467 -75.5382
rradius 29.9847
rwrist 13.569
rhand -11.7664 -12.9991
rfingers 7.12502
rthumb 14.2821 -42.488
lclavicle -2.48481e-015 -3.57812e-015
lhumerus -48.8989 1.78106 76.7542
lradius 24.1909
lwrist -12.811
lhand -16.0327 27.2098
lfingers 7.12502
lthumb 10.1686 56.9441
rfemur -41.34 14.4646 15.75
rtibia 28.8619
rfoot -15.0983 -20.5347
rtoes 1.79281
lfemur -41.0398 -13.8785 -11.9022
ltibia 29.4828
lfoot -9.7837 22.8187
ltoes -16.8675
1880
root 8.73498 17.1302 25.4081 29.8734 -1.76863 -0.921116
lowerback -17.6653 0.896412 3.19075
upperback -15.6325 0.826875 1.07736
thorax -7.07981 0.175661 -0.534286
lowerneck -13.6825 1.04748 0.464014
upperneck 35.5702 1.98716 -1.51551
head 14.5644 0.708589 -0.383889
rclavicle -8.15017e-015 1.74931e-014
rhumerus -52.6939 9.8674 -75.5797
rradius 29.9592
rwrist 13.6098
rhand -11.6932 -13.0319
rfingers 7.12502
rthumb 14.3526 -42.5157
lclavicle -8.15017e-015 1.74931e-014
lhumerus -48.7806 1.77204 76.7313
lradius 24.0158
lwrist -12.968
lhand -15.9794 27.2233
lfingers 7.12502
lthumb 10.22 56.9551
rfemur -41.727 14.4121 15.6213
rtibia 28.9303
rfoot -15.0435 -20.5163
rtoes 1.82792
lfemur -41.4151 -13.8413 -11.8563
ltibia 29.518
lfoot -9.69349 22.7636
ltoes -16.8229
1881
root 8.74336 17.1282 25.3778 30.0967 -1.77943 -0.901992
lowerback -17.6522 0.926926 3.21106
upperback -15.5775 0.863473 1.05019
thorax -7.02054 0.192093 -0.570979
lowerneck -13.6453 1.14759 0.588456
upperneck 35.8884 2.13966 -1.59608
head 14.7105 0.778786 -0.415717
rclavicle 9.93923e-016 -1.23246e-014
rhumerus -52.6842 10.0057 -75.6376
rradius 29.9379
rwrist 13.6374
rhand -11.6109 -13.0657
rfingers 7.12502
rthumb 14.4319 -42.5439
lclavicle 9.93923e-016 -1.23246e-014
lhumerus -48.6634 1.74438 76.728
lradius 23.8569
lwrist -13.1043
lhand -15.918 27.241
lfingers 7.12502
lthumb 10.2793 56.9698
rfemur -42.1423 14.3616 15.4784
rtibia 29.005
rfoot -14.9866 -20.4963
rtoes 1.87692
lfemur -41.8092 -13.8021 -11.8109
ltibia 29.5507
lfoot -9.60246 22.714
ltoes -16.7721
1882
root 8.75189 17.126 25.3469 30.3363 -1.80244 -0.878687
lowerback -17.6431 0.961425 3.22602
upperback -15.5239 0.905562 1.0168
thorax -6.96063 0.21145 -0.610647
lowerneck -13.6066 1.24099 0.711446
upperneck 36.1993 2.28355 -1.67784
head 14.8546 0.844924 -0.449338
rclavicle 4.27387e-015 -1.78906e-014
rhumerus -52.6755 10.1444 -75.7108
rradius 29.9182
rwrist 13.6474
rhand -11.5124 -13.1094
rfingers 7.12502
rthumb 14.5269 -42.5808
lclavicle 4.27387e-015 -1.78906e-014
lhumerus -48.5473 1.70557 76.7346
lradius 23.7052
lwrist -13.2323
lhand -15.8514 27.2533
lfingers 7.12502
lthumb 10.3436 56.9789
rfemur -42.5848 14.3088 15.3236
rtibia 29.0878
rfoot -14.9271 -20.4694
rtoes 1.92765
lfemur -42.2211 -13.7572 -11.7692
ltibia 29.5837
lfoot -9.51147 22.6671
ltoes -16.7253
